<svg width="27" height="28" viewBox="0 0 27 28" fill="none" xmlns="http://www.w3.org/2000/svg">
<path d="M18.1158 9.6427V7.50504C18.1158 6.83892 17.9846 6.17932 17.7297 5.56391C17.4748 4.94849 17.1012 4.38931 16.6301 3.9183C16.1591 3.44728 15.6 3.07365 14.9845 2.81873C14.3691 2.56382 13.7095 2.43262 13.0434 2.43262C12.3773 2.43262 11.7177 2.56382 11.1023 2.81873C10.4869 3.07365 9.92768 3.44728 9.45666 3.9183C8.98564 4.38931 8.61201 4.94849 8.3571 5.56391C8.10218 6.17932 7.97098 6.83892 7.97098 7.50504V12.5775C7.97098 12.7696 8.04733 12.954 8.18322 13.0899C8.31912 13.2257 8.50343 13.3021 8.69561 13.3021C8.8878 13.3021 9.07211 13.2257 9.20801 13.0899C9.3439 12.954 9.42025 12.7696 9.42025 12.5775V11.092H15.2173V9.6427H9.42025V7.50504C9.42025 6.54412 9.80197 5.62255 10.4814 4.94308C11.1609 4.26361 12.0825 3.88188 13.0434 3.88188C14.0043 3.88188 14.9259 4.26361 15.6054 4.94308C16.2848 5.62255 16.6666 6.54412 16.6666 7.50504V12.5412C16.6666 12.7334 16.7429 12.9177 16.8788 13.0536C17.0147 13.1895 17.199 13.2659 17.3912 13.2659C17.5834 13.2659 17.7677 13.1895 17.9036 13.0536C18.0395 12.9177 18.1158 12.7334 18.1158 12.5412V11.092H21.739V24.1353H4.34782V11.092H6.52172V9.6427H2.89856V24.2006C2.89856 24.5676 3.04438 24.9197 3.30394 25.1792C3.5635 25.4388 3.91553 25.5846 4.28261 25.5846H21.8042C22.1713 25.5846 22.5233 25.4388 22.7829 25.1792C23.0424 24.9197 23.1882 24.5676 23.1882 24.2006V9.6427H18.1158Z" fill="#2B2E34"/>
<path fill-rule="evenodd" clip-rule="evenodd" d="M6.52168 9.6426V11.0919H4.34779V24.1352H21.739V11.0919H18.1158V12.5411C18.1158 12.7333 18.0394 12.9176 17.9036 13.0535C17.7677 13.1894 17.5833 13.2658 17.3912 13.2658C17.199 13.2658 17.0147 13.1894 16.8788 13.0535C16.7429 12.9176 16.6665 12.7333 16.6665 12.5411V7.50494C16.6665 6.54402 16.2848 5.62246 15.6053 4.94298C14.9259 4.26351 14.0043 3.88178 13.0434 3.88178C12.0824 3.88178 11.1609 4.26351 10.4814 4.94298C9.80193 5.62246 9.42021 6.54402 9.42021 7.50494V9.6426H15.2173V11.0919H9.42021V12.5774C9.42021 12.7695 9.34386 12.9539 9.20797 13.0898C9.07207 13.2256 8.88776 13.302 8.69558 13.302C8.50339 13.302 8.31908 13.2256 8.18319 13.0898C8.04729 12.9539 7.97095 12.7695 7.97095 12.5774V7.50494C7.97095 6.83882 8.10215 6.17922 8.35706 5.56381C8.61197 4.94839 8.98561 4.38922 9.45662 3.9182C9.92764 3.44718 10.4868 3.07355 11.1022 2.81863C11.7177 2.56372 12.3772 2.43252 13.0434 2.43252C13.7095 2.43252 14.3691 2.56372 14.9845 2.81863C15.5999 3.07355 16.1591 3.44718 16.6301 3.9182C17.1011 4.38922 17.4748 4.94839 17.7297 5.56381C17.9846 6.17922 18.1158 6.83882 18.1158 7.50494V9.6426H23.1882V24.2005C23.1882 24.5675 23.0424 24.9196 22.7828 25.1791C22.5233 25.4387 22.1712 25.5845 21.8042 25.5845H4.28257C3.9155 25.5845 3.56346 25.4387 3.3039 25.1791C3.04434 24.9196 2.89852 24.5675 2.89852 24.2005V9.6426H6.52168ZM18.2158 9.5426H23.2882V24.2005C23.2882 24.594 23.1319 24.9715 22.8535 25.2498C22.5752 25.5281 22.1978 25.6845 21.8042 25.6845H4.28257C3.88898 25.6845 3.5115 25.5281 3.23319 25.2498C2.95488 24.9715 2.79852 24.594 2.79852 24.2005V9.5426H6.62168V11.1919H4.44779V24.0352H21.639V11.1919H18.2158V12.5411C18.2158 12.7598 18.1289 12.9696 17.9743 13.1242C17.8196 13.2789 17.6099 13.3658 17.3912 13.3658C17.1725 13.3658 16.9627 13.2789 16.8081 13.1242C16.6534 12.9696 16.5665 12.7598 16.5665 12.5411V7.50494C16.5665 6.57054 16.1953 5.67441 15.5346 5.01369C14.8739 4.35297 13.9778 3.98178 13.0434 3.98178C12.109 3.98178 11.2128 4.35297 10.5521 5.01369C9.8914 5.67441 9.52021 6.57054 9.52021 7.50494V9.5426H15.3173V11.1919H9.52021V12.5774C9.52021 12.7961 9.43333 13.0058 9.27868 13.1605C9.12403 13.3151 8.91428 13.402 8.69558 13.402C8.47687 13.402 8.26712 13.3151 8.11247 13.1605C7.95783 13.0058 7.87095 12.7961 7.87095 12.5774V7.50494C7.87095 6.82569 8.00473 6.15309 8.26467 5.52554C8.52461 4.89799 8.90561 4.32779 9.38591 3.84749C9.86622 3.36718 10.4364 2.98619 11.064 2.72625C11.6915 2.46631 12.3641 2.33252 13.0434 2.33252C13.7226 2.33252 14.3952 2.46631 15.0228 2.72625C15.6503 2.98619 16.2205 3.36718 16.7008 3.84749C17.1811 4.32779 17.5621 4.89799 17.8221 5.52554C18.082 6.15309 18.2158 6.82569 18.2158 7.50494V9.5426Z" fill="#2B2E34"/>
</svg>
