<svg width="23" height="24" viewBox="0 0 23 24" fill="none" xmlns="http://www.w3.org/2000/svg">
<path d="M19.8455 10.0941H19.7886V8.7599C19.7886 4.47423 16.1565 1 11.676 1C7.19542 1 3.56333 4.47423 3.56333 8.7599V10.0941H3.22177C1.96928 10.0941 1.00147 11.1559 1.00147 12.3812V15.7847C0.969926 16.9722 1.95086 17.9594 3.1924 17.9896C3.20221 17.9898 3.21196 17.99 3.22177 17.9901H5.32819C5.62655 17.9767 5.85707 17.7344 5.84301 17.449C5.84252 17.4388 5.8417 17.4285 5.84056 17.4183V10.7475C5.84056 10.4208 5.64131 10.094 5.32819 10.094H4.70195V8.75985C4.70195 5.0757 7.82434 2.08906 11.676 2.08906C15.5276 2.08906 18.65 5.0757 18.65 8.75985V10.094H18.0237C17.7106 10.094 17.5113 10.4207 17.5113 10.7475V17.4183C17.4796 17.7024 17.6946 17.9573 17.9916 17.9877C18.0022 17.9888 18.013 17.9896 18.0237 17.99H18.6784L18.6215 18.0717C17.7673 19.1575 16.427 19.7935 15.0064 19.787C14.6954 18.3284 13.207 17.387 11.682 17.6845C10.3779 17.9389 9.43768 19.0314 9.42716 20.3044C9.44274 21.7975 10.7127 23 12.2737 22.9999C13.0465 22.9879 13.783 22.6846 14.3232 22.1558C14.6876 21.7988 14.9264 21.3419 15.0064 20.8489C16.7854 20.8553 18.4631 20.058 19.5323 18.6979L20.0732 17.9355C21.2972 17.8539 22.0658 17.1187 22.0658 16.0568V12.6533C22.0658 11.4827 21.1549 10.0941 19.8455 10.0941ZM4.70195 16.901H3.22177C2.60882 16.8867 2.12401 16.3999 2.13894 15.8136C2.13922 15.8039 2.1396 15.7943 2.14009 15.7846V12.3811C2.14009 11.7549 2.59552 11.1831 3.22177 11.1831H4.70195V16.901ZM13.4977 21.3935C13.1823 21.7207 12.7391 21.9081 12.2738 21.9109C11.3476 21.8968 10.5961 21.1899 10.5658 20.3044C10.5654 19.4172 11.3171 18.6977 12.2446 18.6973C13.1721 18.697 13.9244 19.4159 13.9247 20.3031C13.9247 20.3035 13.9247 20.304 13.9247 20.3044C13.9484 20.7087 13.7935 21.1039 13.4977 21.3935ZM20.9272 16.0569C20.9272 16.792 20.1871 16.901 19.8455 16.901H18.65V11.1832H19.8455C20.4718 11.1832 20.9272 12.0272 20.9272 12.6535V16.0569Z" fill="#2B2E34"/>
<path fill-rule="evenodd" clip-rule="evenodd" d="M3.22107 17.9901L3.1917 17.9896C1.95017 17.9594 0.969229 16.9722 1.00078 15.7847V12.3812C1.00078 11.1559 1.96858 10.0941 3.22107 10.0941H3.56263V8.75993C3.56263 4.47426 7.19473 1.00003 11.6753 1.00003C16.1558 1.00003 19.7879 4.47426 19.7879 8.75993V10.0941H19.8448C21.1542 10.0941 22.0651 11.4827 22.0651 12.6534V16.0568C22.0651 17.1187 21.2965 17.8539 20.0725 17.9355L19.5316 18.6979C18.4624 20.058 16.7847 20.8554 15.0057 20.8489C14.9257 21.342 14.6869 21.7989 14.3225 22.1559C13.7823 22.6846 13.0458 22.9879 12.273 22.9999C10.712 23 9.44205 21.7975 9.42646 20.3044C9.43698 19.0314 10.3772 17.9389 11.6813 17.6846C13.2063 17.387 14.6947 18.3284 15.0057 19.7871C16.3649 19.7932 17.6505 19.2114 18.5073 18.2101C18.546 18.1648 18.5838 18.1187 18.6208 18.0717L18.6777 17.9901H18.023C18.0123 17.9896 18.0015 17.9888 17.9909 17.9877C17.6939 17.9573 17.4789 17.7024 17.5106 17.4183V10.7475C17.5106 10.4207 17.7099 10.094 18.023 10.094H18.6493V8.75988C18.6493 5.07572 15.5269 2.08909 11.6753 2.08909C7.82364 2.08909 4.70125 5.07572 4.70125 8.75988V10.094H5.32749C5.64061 10.094 5.83986 10.4208 5.83986 10.7475V17.4183C5.84101 17.4285 5.84182 17.4388 5.84231 17.449C5.85637 17.7344 5.62585 17.9767 5.32749 17.9901H3.22107ZM3.18586 18.2095C1.83326 18.1764 0.747481 17.0987 0.780775 15.7818V12.3812C0.780775 11.0448 1.837 9.87409 3.22107 9.87409H3.34263V8.75993C3.34263 4.34364 7.08254 0.780029 11.6753 0.780029C16.268 0.780029 20.0079 4.34364 20.0079 8.75993V9.88052C20.6735 9.93336 21.2281 10.3059 21.6184 10.798C22.0387 11.3281 22.2851 12.0155 22.2851 12.6534V16.0568C22.2851 16.6441 22.071 17.1525 21.679 17.5235C21.3105 17.8724 20.7985 18.0873 20.1927 18.1464L19.7048 18.8341C18.6289 20.2027 16.9632 21.0207 15.1862 21.0669C15.074 21.5368 14.8285 21.9682 14.4764 22.313C13.895 22.8822 13.1041 23.2071 12.2764 23.2199L12.273 23.2199C10.6005 23.22 9.22341 21.9294 9.20648 20.3067L9.20643 20.3026C9.21787 18.9184 10.239 17.7417 11.6392 17.4686C13.2121 17.1617 14.7618 18.0831 15.1773 19.5646C16.3439 19.5256 17.4386 19.0332 18.2118 18.2101H18.0134C17.9984 18.2094 17.9834 18.2081 17.9684 18.2066C17.5633 18.1651 17.2523 17.816 17.2906 17.4071V10.7475C17.2906 10.5425 17.3524 10.3328 17.4714 10.169C17.5923 10.0024 17.7814 9.87403 18.023 9.87403H18.4293V8.75988C18.4293 5.20634 15.4147 2.30909 11.6753 2.30909C7.93583 2.30909 4.92125 5.20634 4.92125 8.75988V9.87403H5.32749C5.56913 9.87403 5.7582 10.0024 5.87913 10.169C5.99808 10.3329 6.05986 10.5426 6.05986 10.7475V17.4072C6.05986 17.9901 5.52861 18.1991 5.46948 18.2095M4.70125 16.901V11.1831H3.22107C2.59483 11.1831 2.13939 11.755 2.13939 12.3812V15.7846C2.1389 15.7943 2.13852 15.804 2.13825 15.8136C2.12332 16.3999 2.60812 16.8867 3.22107 16.901H4.70125ZM4.48125 16.681V11.4031H3.22107C2.74443 11.4031 2.35939 11.8463 2.35939 12.3812V15.7958L2.35817 15.8192C2.34691 16.2737 2.72451 16.6681 3.22375 16.681H4.48125ZM13.3431 21.2364C13.5946 20.9901 13.7243 20.6565 13.7044 20.3173L13.7037 20.3045L13.704 20.3035M13.3431 21.2364L13.3387 21.2409L13.3431 21.2364ZM13.3387 21.2409C13.066 21.5237 12.6808 21.6878 12.2741 21.6909L13.3387 21.2409ZM12.2741 21.6909C11.459 21.6774 10.813 21.0581 10.7851 20.3007C10.7869 19.5457 11.43 18.9177 12.244 18.9174C13.0593 18.917 13.7037 19.547 13.704 20.3035M12.2731 21.9109C12.7384 21.9081 13.1816 21.7207 13.497 21.3936C13.7928 21.1039 13.9477 20.7087 13.924 20.3045V20.3032C13.9237 19.4159 13.1714 18.697 12.2439 18.6974C11.3164 18.6977 10.5648 19.4172 10.5651 20.3045C10.5954 21.1899 11.3469 21.8968 12.2731 21.9109ZM20.6217 16.3781C20.6706 16.3037 20.7065 16.2019 20.7065 16.0569V12.6535C20.7065 12.387 20.6073 12.0613 20.4372 11.8052C20.2647 11.5454 20.0528 11.4032 19.8448 11.4032H18.8693V16.681H19.8448C19.9997 16.681 20.2292 16.6552 20.4118 16.5597C20.5002 16.5134 20.5718 16.4539 20.6217 16.3781ZM19.8448 16.901C20.1864 16.901 20.9265 16.7921 20.9265 16.0569V12.6535C20.9265 12.0273 20.4711 11.1832 19.8448 11.1832H18.6493V16.901H19.8448Z" fill="#2B2E34"/>
<circle cx="12.3507" cy="20.35" r="1.35" fill="#FBFBFB"/>
</svg>
