<svg width="35" height="25" viewBox="0 0 35 25" fill="none" xmlns="http://www.w3.org/2000/svg">
<path d="M8.59019 18.7742H4.9852C4.41079 18.7742 3.94531 19.2397 3.94531 19.8141C3.94531 20.3885 4.41086 20.8539 4.9852 20.8539H8.59026C9.16466 20.8539 9.63014 20.3884 9.63014 19.8141C9.63014 19.2396 9.1646 18.7742 8.59019 18.7742Z" fill="#2B2E34" fill-opacity="0.12" stroke="white" stroke-width="0.3"/>
<path fill-rule="evenodd" clip-rule="evenodd" d="M31.8416 9.91971L33.7805 12.4169C33.9219 12.5992 33.9988 12.8239 33.9988 13.0547V19.8141C33.9988 20.3884 33.5333 20.8539 32.9589 20.8539H29.9424C29.4677 22.6286 27.846 23.9392 25.9233 23.9392C24.0011 23.9392 22.3792 22.6286 21.9043 20.854H15.7295C15.2546 22.6286 13.6327 23.9392 11.7105 23.9392C9.41676 23.9392 7.55078 22.0732 7.55078 19.7795C7.55078 17.4859 9.41676 15.6199 11.7105 15.6199C13.6576 15.6199 15.2965 16.9646 15.7473 18.7742H21.8865C22.3373 16.9646 23.9762 15.6199 25.9233 15.6199C27.8705 15.6199 29.5094 16.9646 29.9602 18.7742H31.919V13.411L30.4045 11.4601H22.3171C21.7428 11.4601 21.2772 10.9946 21.2772 10.4202V3.14081H4.9852C4.41086 3.14081 3.94531 2.67526 3.94531 2.10092C3.94531 1.52658 4.41079 1.06104 4.9852 1.06104H22.3172C22.8915 1.06104 23.357 1.52652 23.357 2.10092V3.14087H27.7953C28.1884 3.14087 28.5478 3.36239 28.7246 3.71354L31.8443 9.91831L31.8416 9.91971ZM29.2453 9.38032L27.154 5.22071H23.357V9.38032H29.2453ZM28.0031 19.7648C27.9952 18.6245 27.0654 17.6997 25.9233 17.6997C24.7763 17.6997 23.8435 18.6325 23.8435 19.7795C23.8435 20.9266 24.7763 21.8594 25.9233 21.8594C27.05 21.8594 27.9701 20.9594 28.0023 19.8403C28.0021 19.8316 28.002 19.8228 28.002 19.8141C28.002 19.7975 28.0024 19.7811 28.0031 19.7648ZM11.7105 21.8594C10.5634 21.8594 9.63062 20.9266 9.63062 19.7795C9.63062 18.6325 10.5634 17.6997 11.7105 17.6997C12.8571 17.6997 13.7903 18.6325 13.7903 19.7795C13.7903 20.9266 12.8575 21.8594 11.7105 21.8594Z" fill="#2B2E34"/>
<path d="M33.7805 12.4169L33.899 12.325L33.899 12.3249L33.7805 12.4169ZM31.8416 9.91971L31.7742 9.78569L31.6112 9.86762L31.7231 10.0117L31.8416 9.91971ZM33.9988 19.8141L34.1488 19.8141V19.8141H33.9988ZM29.9424 20.8539V20.7039H29.8273L29.7975 20.8152L29.9424 20.8539ZM21.9043 20.854L22.0492 20.8152L22.0195 20.704H21.9043V20.854ZM15.7295 20.854V20.704H15.6143L15.5846 20.8152L15.7295 20.854ZM15.7473 18.7742L15.6018 18.8104L15.6301 18.9242H15.7473V18.7742ZM21.8865 18.7742V18.9242H22.0037L22.032 18.8104L21.8865 18.7742ZM29.9602 18.7742L29.8147 18.8104L29.843 18.9242H29.9602V18.7742ZM31.919 18.7742V18.9242H32.069V18.7742H31.919ZM31.919 13.411H32.069V13.3596L32.0375 13.319L31.919 13.411ZM30.4045 11.4601L30.523 11.3681L30.478 11.3101H30.4045V11.4601ZM21.2772 3.14081H21.4272V2.99081H21.2772V3.14081ZM23.357 3.14087H23.207V3.29087H23.357V3.14087ZM28.7246 3.71354L28.8586 3.64615L28.8586 3.64608L28.7246 3.71354ZM31.8443 9.91831L31.9117 10.0523L32.0457 9.98495L31.9784 9.85093L31.8443 9.91831ZM27.154 5.22071L27.288 5.15333L27.2464 5.07071H27.154V5.22071ZM29.2453 9.38032V9.53032H29.4886L29.3793 9.31294L29.2453 9.38032ZM23.357 5.22071V5.07071H23.207V5.22071H23.357ZM23.357 9.38032H23.207V9.53032H23.357V9.38032ZM28.0031 19.7648L28.1532 19.7718L28.1531 19.7637L28.0031 19.7648ZM28.0023 19.8403L28.1525 19.8446L28.1523 19.8366L28.0023 19.8403ZM33.899 12.3249L31.96 9.82771L31.7231 10.0117L33.662 12.5089L33.899 12.3249ZM34.1488 13.0547C34.1488 12.7906 34.0608 12.5336 33.899 12.325L33.6619 12.5088C33.783 12.6649 33.8488 12.8572 33.8488 13.0547H34.1488ZM34.1488 19.8141V13.0547H33.8488V19.8141H34.1488ZM32.9589 21.0039C33.6161 21.0039 34.1488 20.4712 34.1488 19.8141L33.8488 19.814C33.8488 20.3056 33.4504 20.7039 32.9589 20.7039V21.0039ZM29.9424 21.0039H32.9589V20.7039H29.9424V21.0039ZM29.7975 20.8152C29.3398 22.526 27.7762 23.7892 25.9233 23.7892V24.0892C27.9157 24.0892 29.5955 22.7312 30.0873 20.8927L29.7975 20.8152ZM25.9233 23.7892C24.0708 23.7892 22.507 22.526 22.0492 20.8152L21.7594 20.8928C22.2513 22.7312 23.9313 24.0892 25.9233 24.0892V23.7892ZM21.9043 20.704H15.7295V21.004H21.9043V20.704ZM15.5846 20.8152C15.1268 22.526 13.563 23.7892 11.7105 23.7892V24.0892C13.7025 24.0892 15.3825 22.7312 15.8744 20.8928L15.5846 20.8152ZM11.7105 23.7892C9.49961 23.7892 7.70078 21.9904 7.70078 19.7795H7.40078C7.40078 22.1561 9.33392 24.0892 11.7105 24.0892V23.7892ZM7.70078 19.7795C7.70078 17.5687 9.49961 15.7699 11.7105 15.7699V15.4699C9.33392 15.4699 7.40078 17.403 7.40078 19.7795H7.70078ZM11.7105 15.7699C13.587 15.7699 15.1672 17.066 15.6018 18.8104L15.8929 18.7379C15.4259 16.8632 13.7282 15.4699 11.7105 15.4699V15.7699ZM15.7473 18.9242H21.8865V18.6242H15.7473V18.9242ZM22.032 18.8104C22.4666 17.066 24.0468 15.7699 25.9233 15.7699V15.4699C23.9056 15.4699 22.2079 16.8632 21.7409 18.7379L22.032 18.8104ZM25.9233 15.7699C27.7999 15.7699 29.3801 17.066 29.8147 18.8104L30.1058 18.7379C29.6387 16.8632 27.9411 15.4699 25.9233 15.4699V15.7699ZM31.919 18.6242H29.9602V18.9242H31.919V18.6242ZM31.769 13.411V18.7742H32.069V13.411H31.769ZM30.2861 11.5521L31.8005 13.5029L32.0375 13.319L30.523 11.3681L30.2861 11.5521ZM22.3171 11.6101H30.4045V11.3101H22.3171V11.6101ZM21.1272 10.4202C21.1272 11.0775 21.6599 11.6101 22.3171 11.6101V11.3101C21.8256 11.3101 21.4272 10.9118 21.4272 10.4202H21.1272ZM21.1272 3.14081V10.4202H21.4272V3.14081H21.1272ZM4.9852 3.29081H21.2772V2.99081H4.9852V3.29081ZM3.79531 2.10092C3.79531 2.75811 4.32801 3.29081 4.9852 3.29081V2.99081C4.4937 2.99081 4.09531 2.59242 4.09531 2.10092H3.79531ZM4.9852 0.911035C4.32794 0.911035 3.79531 1.44374 3.79531 2.10092H4.09531C4.09531 1.60942 4.49364 1.21104 4.9852 1.21104V0.911035ZM22.3172 0.911035H4.9852V1.21104H22.3172V0.911035ZM23.507 2.10092C23.507 1.44367 22.9743 0.911035 22.3172 0.911035V1.21104C22.8087 1.21104 23.207 1.60936 23.207 2.10092H23.507ZM23.507 3.14087V2.10092H23.207V3.14087H23.507ZM27.7953 2.99087H23.357V3.29087H27.7953V2.99087ZM28.8586 3.64608C28.6563 3.24434 28.245 2.99087 27.7953 2.99087V3.29087C28.1317 3.29087 28.4393 3.48045 28.5906 3.78099L28.8586 3.64608ZM31.9784 9.85093L28.8586 3.64615L28.5906 3.78092L31.7103 9.98569L31.9784 9.85093ZM31.9089 10.0537L31.9117 10.0523L31.777 9.78429L31.7742 9.78569L31.9089 10.0537ZM27.0199 5.28809L29.1113 9.4477L29.3793 9.31294L27.288 5.15333L27.0199 5.28809ZM23.357 5.37071H27.154V5.07071H23.357V5.37071ZM23.507 9.38032V5.22071H23.207V9.38032H23.507ZM29.2453 9.23032H23.357V9.53032H29.2453V9.23032ZM28.1531 19.7637C28.1446 18.5411 27.1479 17.5497 25.9233 17.5497V17.8497C26.9829 17.8497 27.8458 18.708 27.8531 19.7658L28.1531 19.7637ZM25.9233 17.5497C24.6935 17.5497 23.6935 18.5497 23.6935 19.7795H23.9935C23.9935 18.7154 24.8592 17.8497 25.9233 17.8497V17.5497ZM23.6935 19.7795C23.6935 21.0094 24.6935 22.0094 25.9233 22.0094V21.7094C24.8592 21.7094 23.9935 20.8437 23.9935 19.7795H23.6935ZM25.9233 22.0094C27.1315 22.0094 28.1177 21.0446 28.1523 19.8446L27.8524 19.836C27.8225 20.8742 26.9686 21.7094 25.9233 21.7094V22.0094ZM27.852 19.8141C27.852 19.8241 27.8521 19.834 27.8524 19.844L28.1523 19.8366C28.1521 19.8291 28.152 19.8216 28.152 19.8141H27.852ZM27.8533 19.7578C27.8524 19.7764 27.852 19.7952 27.852 19.8141H28.152C28.152 19.7999 28.1523 19.7858 28.153 19.7718L27.8533 19.7578ZM9.48062 19.7795C9.48062 21.0094 10.4806 22.0094 11.7105 22.0094V21.7094C10.6463 21.7094 9.78062 20.8437 9.78062 19.7795H9.48062ZM11.7105 17.5497C10.4806 17.5497 9.48062 18.5497 9.48062 19.7795H9.78062C9.78062 18.7154 10.6463 17.8497 11.7105 17.8497V17.5497ZM13.9403 19.7795C13.9403 18.5497 12.94 17.5497 11.7105 17.5497V17.8497C12.7743 17.8497 13.6403 18.7154 13.6403 19.7795H13.9403ZM11.7105 22.0094C12.9403 22.0094 13.9403 21.0095 13.9403 19.7795H13.6403C13.6403 20.8438 12.7746 21.7094 11.7105 21.7094V22.0094Z" fill="white"/>
<path d="M8.52275 13.5051H3.73911C3.1647 13.5051 2.69922 13.9707 2.69922 14.545C2.69922 15.1194 3.16476 15.5849 3.73911 15.5849H8.52269C9.09709 15.5849 9.56257 15.1194 9.56257 14.545C9.56264 13.9707 9.09709 13.5051 8.52275 13.5051Z" fill="#2B2E34" fill-opacity="0.3" stroke="white" stroke-width="0.3"/>
<path d="M10.9139 9.41504H2.03989C1.46554 9.41504 1 9.88058 1 10.455C1 11.0294 1.46554 11.4949 2.03989 11.4949H10.9139C11.4883 11.4949 11.9537 11.0293 11.9537 10.455C11.9537 9.88065 11.4883 9.41504 10.9139 9.41504Z" fill="#2B2E34" fill-opacity="0.6" stroke="white" stroke-width="0.3"/>
<path d="M12.6131 5.32471H3.73911C3.1647 5.32471 2.69922 5.79025 2.69922 6.36459C2.69922 6.939 3.16476 7.40448 3.73911 7.40448H12.6131C13.1875 7.40448 13.653 6.93893 13.653 6.36459C13.653 5.79025 13.1875 5.32471 12.6131 5.32471Z" fill="#2B2E34" fill-opacity="0.8" stroke="white" stroke-width="0.3"/>
</svg>
