<svg width="17" height="24" viewBox="0 0 17 24" fill="none" xmlns="http://www.w3.org/2000/svg">
<path d="M0.85 8.69185C0.85 4.35062 4.3003 0.85 8.5 0.85C12.6996 0.85 16.1499 4.35061 16.15 8.69185C16.15 10.0133 15.7232 11.5515 15.0262 13.1632C14.3337 14.7647 13.3999 16.3812 12.4446 17.8434C10.6861 20.5348 8.89165 22.6474 8.5 23.1C8.10834 22.6474 6.31389 20.5348 4.5554 17.8434C3.60008 16.3812 2.66632 14.7647 1.97378 13.1632C1.27683 11.5515 0.85 10.0133 0.85 8.69185ZM8.56926 23.1796L8.56923 23.1795L8.56926 23.1796Z" stroke="#2B2E34" stroke-width="1.7"/>
<circle cx="8.5" cy="8.5" r="2.65" stroke="#2B2E34" stroke-width="1.7"/>
</svg>
