<svg width="213" height="17" viewBox="0 0 213 17" fill="none" xmlns="http://www.w3.org/2000/svg">
<path d="M6.29645 6.71832H17.0952V3.56263H0C0 2.40894 0.462643 1.5267 1.38793 0.915924C2.33578 0.305145 3.5883 -0.000244141 5.14549 -0.000244141H17.7045C18.3816 -0.000244141 19.0248 0.0902418 19.6341 0.271213C20.2434 0.452185 20.7738 0.701021 21.2251 1.01772C21.6991 1.3118 22.0714 1.67374 22.3422 2.10355C22.6131 2.53336 22.7485 3.00841 22.7485 3.5287V13.4708C22.7485 14.0137 22.6131 14.5001 22.3422 14.9299C22.0714 15.3597 21.6991 15.733 21.2251 16.0497C20.7738 16.3437 20.2434 16.5813 19.6341 16.7622C19.0248 16.9206 18.3703 16.9998 17.6707 16.9998H5.14549C4.42331 16.9998 3.74627 16.9319 3.11437 16.7962C2.50504 16.6604 1.96341 16.4568 1.48948 16.1854C1.01556 15.8913 0.643186 15.5294 0.372371 15.0996C0.124124 14.6471 0 14.1155 0 13.5047H17.0952V10.3151H6.29645V6.71832Z" fill="#2B2E34"/>
<path d="M42.3291 16.9998C41.6295 16.9998 41.0428 16.9432 40.5688 16.8301C40.1175 16.717 39.7113 16.5813 39.3502 16.4229C39.0116 16.2646 38.707 16.0836 38.4362 15.88C38.1653 15.6764 37.8945 15.4841 37.6237 15.3031L30.4471 9.16143V13.7423C30.4471 14.353 30.3004 14.8733 30.007 15.3031C29.7362 15.7103 29.3639 16.0383 28.8899 16.2872C28.416 16.536 27.8631 16.717 27.2312 16.8301C26.6219 16.9432 25.9787 16.9998 25.3016 16.9998H24.7939V-0.000244141H30.4471V7.49876L37.8268 -0.000244141H44.0894L36.3712 7.97381L46.6622 16.9998H42.3291Z" fill="#2B2E34"/>
<path d="M71.4436 13.5726C71.4436 14.1834 71.3082 14.7037 71.0374 15.1335C70.7666 15.5407 70.3942 15.8913 69.9203 16.1854C69.4689 16.4568 68.9273 16.6604 68.2954 16.7962C67.6635 16.9319 66.9864 16.9998 66.2643 16.9998H53.7391C53.0395 16.9998 52.385 16.9206 51.7757 16.7622C51.1663 16.5813 50.6247 16.3437 50.1508 16.0497C49.6994 15.733 49.3383 15.371 49.0675 14.9638C48.8193 14.534 48.6951 14.0477 48.6951 13.5047V3.46083C48.6951 2.96316 48.8193 2.49942 49.0675 2.06962C49.3383 1.61719 49.6994 1.24394 50.1508 0.949856C50.6247 0.633157 51.1663 0.395632 51.7757 0.237282C52.385 0.0789312 53.0395 -0.000244141 53.7391 -0.000244141H66.2643C67.7989 -0.000244141 69.0401 0.305145 69.988 0.915924C70.9584 1.50408 71.4436 2.37501 71.4436 3.5287V13.5726ZM65.7903 3.56263H54.3484V13.5047H65.7903V3.56263Z" fill="#2B2E34"/>
<path d="M90.5842 16.9998V10.3151H79.1423V16.9998H73.489V3.46083C73.489 2.96316 73.6244 2.51073 73.8952 2.10355C74.166 1.67374 74.5271 1.3118 74.9785 1.01772C75.4524 0.701021 75.994 0.452185 76.6034 0.271213C77.2127 0.0902418 77.8672 -0.000244141 78.5668 -0.000244141H79.1423V6.78618H90.618V-0.000244141H96.2374V16.9998H90.5842Z" fill="#2B2E34"/>
<path d="M128.768 13.5726C128.768 14.2965 128.576 14.8847 128.192 15.3371C127.831 15.7895 127.369 16.1401 126.804 16.389C126.263 16.6378 125.653 16.8075 124.976 16.898C124.322 16.9658 123.701 16.9998 123.115 16.9998H111.266V16.6604C111.266 15.8687 111.469 15.2579 111.876 14.8281C112.304 14.3757 112.79 14.059 113.331 13.878C113.896 13.6744 114.471 13.5613 115.058 13.5387C115.667 13.5161 116.141 13.5047 116.48 13.5047H123.115V10.3151H111.199C110.86 10.3151 110.397 10.3377 109.811 10.383C109.224 10.4056 108.637 10.3604 108.05 10.2473C107.486 10.1115 107.001 9.85139 106.595 9.46682C106.189 9.05964 105.985 8.43755 105.985 7.60055V0.0336896H106.459C106.82 0.0336896 107.294 0.0563108 107.881 0.101553C108.491 0.146796 109.066 0.259903 109.608 0.440874C110.172 0.621846 110.657 0.915924 111.063 1.32311C111.469 1.7303 111.673 2.31845 111.673 3.08758V6.71832H123.115V-0.000244141H128.768V13.5726Z" fill="#2B2E34"/>
<path d="M153.561 6.71832C153.561 7.91725 152.985 8.82211 151.834 9.43289C150.683 10.021 149.138 10.3151 147.197 10.3151H138.734C138.734 9.95318 138.79 9.55731 138.903 9.1275C139.038 8.67507 139.23 8.2792 139.478 7.93988C139.749 7.60055 140.099 7.31779 140.528 7.09157C140.957 6.84274 141.464 6.71832 142.051 6.71832H147.874V3.56263H136.466V13.0297C136.466 14.6132 135.98 15.699 135.01 16.2872C134.514 16.5813 133.949 16.7735 133.317 16.864C132.686 16.9545 132.042 16.9998 131.388 16.9998H130.812V-0.000244141H148.382C149.916 -0.000244141 151.157 0.305145 152.105 0.915924C153.076 1.5267 153.561 2.40894 153.561 3.56263V6.71832Z" fill="#2B2E34"/>
<path d="M155.606 3.56263C155.606 2.40894 156.08 1.5267 157.028 0.915924C157.998 0.305145 159.251 -0.000244141 160.786 -0.000244141H183.026C184.561 -0.000244141 185.802 0.305145 186.75 0.915924C187.72 1.5267 188.206 2.40894 188.206 3.56263V9.33109C188.206 10.53 187.63 11.4349 186.479 12.0457C185.328 12.6338 183.782 12.9279 181.841 12.9279H174.733V13.0297C174.733 14.6132 174.247 15.699 173.277 16.2872C172.78 16.5813 172.216 16.7735 171.584 16.864C170.952 16.9545 170.309 16.9998 169.655 16.9998H169.079V12.9279H161.97C160.03 12.9279 158.484 12.6338 157.333 12.0457C156.182 11.4349 155.606 10.53 155.606 9.33109V3.56263ZM174.733 9.33109H182.518V3.56263H174.733V9.33109ZM161.293 9.33109H169.079V3.56263H161.293V9.33109Z" fill="#2B2E34"/>
<path d="M213 13.5726C213 14.1834 212.865 14.7037 212.594 15.1335C212.323 15.5407 211.951 15.8913 211.477 16.1854C211.025 16.4568 210.484 16.6604 209.852 16.7962C209.22 16.9319 208.543 16.9998 207.821 16.9998H195.295C194.596 16.9998 193.941 16.9206 193.332 16.7622C192.723 16.5813 192.181 16.3437 191.707 16.0497C191.256 15.733 190.895 15.371 190.624 14.9638C190.376 14.534 190.252 14.0477 190.252 13.5047V3.46083C190.252 2.96316 190.376 2.49942 190.624 2.06962C190.895 1.61719 191.256 1.24394 191.707 0.949856C192.181 0.633157 192.723 0.395632 193.332 0.237282C193.941 0.0789312 194.596 -0.000244141 195.295 -0.000244141H207.821C209.355 -0.000244141 210.597 0.305145 211.544 0.915924C212.515 1.50408 213 2.37501 213 3.5287V13.5726ZM207.347 3.56263H195.905V13.5047H207.347V3.56263Z" fill="#2B2E34"/>
</svg>
