<svg width="21" height="21" viewBox="0 0 21 21" fill="none" xmlns="http://www.w3.org/2000/svg">
<g clip-path="url(#clip0_13_462)">
<path d="M11.177 7.15538V7.23318L11.2525 7.25231C12.4871 7.56558 13.4548 8.60672 13.6293 9.9155L14.6756 17.7626C14.7812 18.5545 14.54 19.3533 14.0138 19.9543C13.4876 20.5553 12.7277 20.9 11.9288 20.9H3.57062C2.7718 20.9 2.01188 20.5553 1.48561 19.9542C0.959419 19.3532 0.718215 18.5544 0.823794 17.7626L0.724671 17.7494L0.823794 17.7626L1.8701 9.91546C2.04465 8.60668 3.01227 7.56557 4.24696 7.25227L4.32236 7.23313V7.15534V4.77344C4.32236 4.27638 4.7253 3.87344 5.22236 3.87344H6.92939H7.02939V3.77344V1.64062V1.54062H6.92939H4.32236V1C4.32236 0.502944 4.7253 0.1 5.22236 0.1H12.1485C12.9165 0.1 13.638 0.398845 14.181 0.941882L16.2512 3.01216C16.5325 3.29347 16.5325 3.74956 16.2512 4.03086C15.9699 4.31215 15.5139 4.31215 15.2326 4.03085L13.1623 1.96055C12.8916 1.68987 12.5313 1.54062 12.1485 1.54062H8.57002H8.47002V1.64062V3.77344V3.87344H8.57002H10.277C10.7741 3.87344 11.177 4.27638 11.177 4.77344V7.15538ZM9.73643 5.41406V5.31406H9.63643H5.86299H5.76299V5.41406V7.05469V7.15469H5.86299H9.63643H9.73643V7.05469V5.41406ZM2.25182 17.953L2.35094 17.9662L2.25182 17.953C2.20047 18.3384 2.31352 18.7128 2.56957 19.0053C2.82564 19.2978 3.18189 19.4594 3.57062 19.4594H11.9288C12.3176 19.4594 12.6738 19.2978 12.9299 19.0053C13.186 18.7128 13.299 18.3384 13.2477 17.9531L12.2014 10.1059C12.0865 9.24453 11.345 8.59531 10.476 8.59531H5.02348C4.15448 8.59531 3.41295 9.24453 3.29813 10.1059L2.25182 17.953ZM16.9193 10.6218L16.9192 10.6218V10.6243C16.9192 11.1307 17.3321 11.5434 17.8396 11.5434C18.3468 11.5434 18.7594 11.1312 18.7599 10.624L18.76 10.624L18.7597 10.6183C18.7575 10.5789 18.7181 10.2151 18.0595 9.24586C18.0133 9.17773 17.9669 9.111 17.9212 9.04643L17.8396 8.93113L17.7579 9.0464C17.7122 9.11102 17.6658 9.17775 17.6196 9.24586C16.9529 10.2271 16.9201 10.5888 16.9193 10.6218ZM8.51103 13.248V13.348H8.61103H10.1517V14.7887H8.61103H8.51103V14.8887V16.4293H7.07041V14.8887V14.7887H6.97041H5.42978V13.348H6.97041H7.07041V13.248V11.7074H8.51103V13.248ZM17.7428 6.74603C17.7804 6.70028 17.813 6.66071 17.8396 6.62865C17.8661 6.66071 17.8987 6.70028 17.9363 6.74603C18.0433 6.87607 18.1903 7.05599 18.3506 7.25557C18.6721 7.65574 19.0444 8.13157 19.2559 8.4433L19.3387 8.38716L19.2559 8.44331C20.1118 9.70475 20.2005 10.2991 20.2005 10.623C20.2005 11.9248 19.1413 12.984 17.8396 12.984C16.5378 12.984 15.4786 11.9248 15.4786 10.623C15.4786 10.2991 15.5673 9.70475 16.4232 8.44331L16.3404 8.38716L16.4232 8.44331C16.6347 8.13157 17.007 7.65574 17.3285 7.25557C17.4888 7.05599 17.6358 6.87606 17.7428 6.74603Z" fill="#2B2E34" stroke="white" stroke-width="0.2"/>
</g>
<defs>
<clipPath id="clip0_13_462">
<rect width="21" height="21" fill="white"/>
</clipPath>
</defs>
</svg>
