<svg width="20" height="20" viewBox="0 0 20 20" fill="none" xmlns="http://www.w3.org/2000/svg">
<path d="M19.375 2.5H11.5625C10.0534 2.5 8.79066 3.57539 8.50027 5H7.23203C7.53621 2.88262 9.3623 1.25 11.5625 1.25H19.375C19.7202 1.25 20 0.970156 20 0.625C20 0.279844 19.7202 0 19.375 0H11.5625C8.67211 0 6.28434 2.19145 5.97242 5H5.6541C3.05336 5 0.9375 7.11586 0.9375 9.7166V10.625H0.625C0.279844 10.625 0 10.9048 0 11.25V13.75C0 14.0952 0.279844 14.375 0.625 14.375H15C15.3452 14.375 15.625 14.0952 15.625 13.75V11.25C15.625 10.9048 15.3452 10.625 15 10.625H14.6875V9.7166C14.6875 7.11586 12.5716 5 9.9709 5H9.795C10.053 4.27254 10.7477 3.75 11.5625 3.75H19.375C19.7202 3.75 20 3.47016 20 3.125C20 2.77984 19.7202 2.5 19.375 2.5ZM14.375 13.125H1.25V11.875H14.375V13.125ZM13.4375 9.7166V10.625H2.1875V9.7166C2.1875 7.80512 3.74262 6.25 5.6541 6.25H9.97094C11.8824 6.25 13.4375 7.80512 13.4375 9.7166Z" fill="#2B2E34"/>
<path d="M7.8125 15C7.46734 15 7.1875 15.2798 7.1875 15.625V16.5234C7.1875 16.8686 7.46734 17.1484 7.8125 17.1484C8.15766 17.1484 8.4375 16.8686 8.4375 16.5234V15.625C8.4375 15.2798 8.15766 15 7.8125 15Z" fill="#2B2E34"/>
<path d="M11.5625 15C11.2173 15 10.9375 15.2798 10.9375 15.625V16.5234C10.9375 16.8686 11.2173 17.1484 11.5625 17.1484C11.9077 17.1484 12.1875 16.8686 12.1875 16.5234V15.625C12.1875 15.2798 11.9077 15 11.5625 15Z" fill="#2B2E34"/>
<path d="M9.6875 17.8516C9.34234 17.8516 9.0625 18.1314 9.0625 18.4766V19.375C9.0625 19.7202 9.34234 20 9.6875 20C10.0327 20 10.3125 19.7202 10.3125 19.375V18.4766C10.3125 18.1314 10.0327 17.8516 9.6875 17.8516Z" fill="#2B2E34"/>
<path d="M13.75 17.8516C13.4048 17.8516 13.125 18.1314 13.125 18.4766V19.375C13.125 19.7202 13.4048 20 13.75 20C14.0952 20 14.375 19.7202 14.375 19.375V18.4766C14.375 18.1314 14.0952 17.8516 13.75 17.8516Z" fill="#2B2E34"/>
<path d="M4.0625 15C3.71734 15 3.4375 15.2798 3.4375 15.625V16.5234C3.4375 16.8686 3.71734 17.1484 4.0625 17.1484C4.40766 17.1484 4.6875 16.8686 4.6875 16.5234V15.625C4.6875 15.2798 4.40766 15 4.0625 15Z" fill="#2B2E34"/>
<path d="M5.9375 17.8516C5.59234 17.8516 5.3125 18.1314 5.3125 18.4766V19.375C5.3125 19.7202 5.59234 20 5.9375 20C6.28266 20 6.5625 19.7202 6.5625 19.375V18.4766C6.5625 18.1314 6.28266 17.8516 5.9375 17.8516Z" fill="#2B2E34"/>
<path d="M2.1875 17.8516C1.84234 17.8516 1.5625 18.1314 1.5625 18.4766V19.375C1.5625 19.7202 1.84234 20 2.1875 20C2.53266 20 2.8125 19.7202 2.8125 19.375V18.4766C2.8125 18.1314 2.53266 17.8516 2.1875 17.8516Z" fill="#2B2E34"/>
</svg>
