<svg width="23" height="18" viewBox="0 0 23 18" fill="none" xmlns="http://www.w3.org/2000/svg">
<path d="M21.4446 0.633057C21.0821 0.633057 20.7881 0.934115 20.7881 1.3047V3.93159H20.0542V3.33294C20.0542 1.84432 18.8703 0.633057 17.4157 0.633057C16.6255 0.633057 15.9178 0.992303 15.4334 1.55685C14.9491 0.992303 14.2413 0.633057 13.4514 0.633057C12.6612 0.633057 11.953 0.992303 11.4691 1.55685C10.9848 0.992303 10.2768 0.633057 9.48679 0.633057C8.69692 0.633057 7.98873 0.992303 7.50464 1.55685C7.02055 0.992303 6.31237 0.633057 5.52231 0.633057C4.06757 0.633057 2.88373 1.84441 2.88373 3.33294V3.93159H1.55683C1.19464 3.93159 0.900391 4.23246 0.900391 4.60323C0.900391 4.97391 1.19464 5.27497 1.55683 5.27497H2.88272V15.3002C2.88272 16.7889 4.06666 18.0001 5.52131 18.0001C6.31136 18.0001 7.01955 17.6411 7.50364 17.0765C7.98773 17.6411 8.69573 18.0001 9.48578 18.0001C10.2758 18.0001 10.9838 17.6411 11.4679 17.0765C11.9519 17.6411 12.6602 18.0001 13.4501 18.0001C14.2399 18.0001 14.9485 17.6411 15.4324 17.0765C15.9162 17.6411 16.6249 18.0001 17.4147 18.0001C18.8697 18.0001 20.0535 16.7888 20.0535 15.3002V5.27544H21.4435C21.8059 5.27544 22.0999 4.97438 22.0999 4.60379V1.30517C22.1011 0.934115 21.8066 0.633057 21.4446 0.633057ZM18.7412 5.27544V15.3007C18.7412 16.0489 18.1466 16.6573 17.4157 16.6573C16.6848 16.6573 16.0899 16.049 16.0899 15.3007V5.27544V3.93205V3.3334C16.0899 2.58539 16.6848 1.97681 17.4157 1.97681C18.1466 1.97681 18.7412 2.5853 18.7412 3.3334V3.93205V5.27544ZM14.7765 15.3003C14.7765 16.0484 14.1816 16.6568 13.4507 16.6568C12.7198 16.6568 12.1248 16.0485 12.1248 15.3003V5.27544V3.93205V3.3334C12.1248 2.58539 12.7197 1.97681 13.4507 1.97681C14.1815 1.97681 14.7765 2.5853 14.7765 3.3334V3.93205V5.27544V15.3003ZM10.8121 15.3003C10.8121 16.0484 10.2174 16.6568 9.48652 16.6568C8.75571 16.6568 8.1609 16.0485 8.1609 15.3003V5.27544V3.93205V3.3334C8.1609 2.58539 8.75571 1.97681 9.48652 1.97681C10.2174 1.97681 10.8121 2.5853 10.8121 3.3334V3.93205V5.27544V15.3003ZM6.84747 15.3003C6.84747 16.0484 6.25248 16.6568 5.52167 16.6568C4.79078 16.6568 4.19606 16.0485 4.19606 15.3003V5.27544V3.93205V3.3334C4.19606 2.58539 4.79078 1.97681 5.52167 1.97681C6.25248 1.97681 6.84747 2.5853 6.84747 3.3334V3.93205V5.27544V15.3003Z" fill="#2B2E34"/>
</svg>
