<svg width="22" height="23" viewBox="0 0 22 23" fill="none" xmlns="http://www.w3.org/2000/svg">
<path d="M18.8003 15.6163C17.501 14.5313 16.1824 13.874 14.899 14.9574L14.1327 15.6122C13.572 16.0875 12.5296 18.3084 8.49903 13.7814C4.46933 9.26009 6.86734 8.55612 7.42886 8.0849L8.19938 7.42928C9.47603 6.34341 8.99425 4.97644 8.07348 3.56932L7.51783 2.71702C6.59288 1.31318 5.58566 0.391214 4.30566 1.47544L3.61403 2.0655C3.04831 2.46788 1.46699 3.77584 1.0834 6.26064C0.621763 9.24206 2.07803 12.6562 5.41443 16.4022C8.74664 20.1499 12.0092 22.0324 15.0997 21.9996C17.6681 21.9725 19.2192 20.6269 19.7043 20.1376L20.3984 19.5467C21.6751 18.4633 20.8819 17.3603 19.5818 16.2727L18.8003 15.6163Z" fill="white"/>
<path d="M18.8003 15.6163C17.501 14.5313 16.1824 13.874 14.899 14.9574L14.1327 15.6122C13.572 16.0875 12.5296 18.3084 8.49903 13.7814C4.46933 9.26009 6.86734 8.55612 7.42886 8.0849L8.19938 7.42928C9.47603 6.34341 8.99425 4.97644 8.07348 3.56932L7.51783 2.71702C6.59288 1.31318 5.58566 0.391214 4.30566 1.47544L3.61403 2.0655C3.04831 2.46788 1.46699 3.77584 1.0834 6.26064C0.621763 9.24206 2.07803 12.6562 5.41443 16.4022C8.74664 20.1499 12.0092 22.0324 15.0997 21.9996C17.6681 21.9725 19.2192 20.6269 19.7043 20.1376L20.3984 19.5467C21.6751 18.4633 20.8819 17.3603 19.5818 16.2727L18.8003 15.6163Z" fill="url(#paint0_linear_1_1097)"/>
<path d="M18.8003 15.6163C17.501 14.5313 16.1824 13.874 14.899 14.9574L14.1327 15.6122C13.572 16.0875 12.5296 18.3084 8.49903 13.7814C4.46933 9.26009 6.86734 8.55612 7.42886 8.0849L8.19938 7.42928C9.47603 6.34341 8.99425 4.97644 8.07348 3.56932L7.51783 2.71702C6.59288 1.31318 5.58566 0.391214 4.30566 1.47544L3.61403 2.0655C3.04831 2.46788 1.46699 3.77584 1.0834 6.26064C0.621763 9.24206 2.07803 12.6562 5.41443 16.4022C8.74664 20.1499 12.0092 22.0324 15.0997 21.9996C17.6681 21.9725 19.2192 20.6269 19.7043 20.1376L20.3984 19.5467C21.6751 18.4633 20.8819 17.3603 19.5818 16.2727L18.8003 15.6163Z" stroke="#2B2E34" stroke-width="1.7"/>
<defs>
<linearGradient id="paint0_linear_1_1097" x1="11.0227" y1="1" x2="11.0227" y2="22" gradientUnits="userSpaceOnUse">
<stop stop-color="white"/>
<stop offset="1" stop-color="white" stop-opacity="0"/>
</linearGradient>
</defs>
</svg>
