<svg width="43" height="66" viewBox="0 0 43 66" fill="none" xmlns="http://www.w3.org/2000/svg">
<path d="M22.7895 61.9934C21.0441 56.7186 27.5809 43.3433 31.0674 37.3149C25.4326 46.4696 22.5723 52.9025 21.3552 57.3161C19.6761 63.4054 26.2742 64.9591 29.0855 59.3027C29.6086 58.2504 30.0208 57.2519 30.2974 56.4674L26.5114 57.9745C25.382 60.1849 23.5595 61.5748 22.7895 61.9934Z" fill="url(#paint0_linear_1_1009)"/>
<path d="M22.791 61.9951C24.172 61.2345 25.8107 59.3902 26.5012 57.9959C28.1334 57.3621 28.5385 57.2614 28.8524 57.198C27.9622 59.3617 26.63 61.2415 25.4646 62.439C24.589 63.3387 23.1846 63.1872 22.791 61.9951Z" fill="url(#paint1_linear_1_1009)"/>
<path d="M41.6754 31.0471C40.3565 26.0107 36.666 24.3108 36.4758 26.1995C34.9539 30.4805 32.5443 34.6566 31.5298 36.2095C23.1272 52.1766 26.8797 57.048 28.6129 57.2998C43.7806 51.3568 43.6834 37.3008 41.6754 31.0471Z" fill="url(#paint2_linear_1_1009)"/>
<path d="M18.5857 23.1182C18.5605 23.277 18.534 23.4296 18.5062 23.5756C18.5338 23.4225 18.5603 23.27 18.5857 23.1182C19.3097 18.5526 18.8791 8.86354 11.7136 3.14098C11.2692 4.08996 11.2946 6.92423 13.6816 12.1879L11.3962 15.9205C9.25896 12.1246 5.49235 2.3818 8.79342 0.167525C11.8115 -1.33634 21.2191 7.36297 18.5857 23.1182Z" fill="url(#paint3_radial_1_1009)"/>
<path d="M9.34669 3.02122C10.0887 2.52427 11.5774 2.90297 11.8247 3.21357C11.1321 5.69834 12.7889 10.1649 13.737 12.2149L11.9583 15.1446C8.4955 7.09401 8.54283 3.76665 9.34669 3.02122Z" fill="url(#paint4_linear_1_1009)"/>
<path d="M27.4615 28.8717C28.4753 14.4396 21.3364 4.75539 17.6402 1.71729C34.9256 11.3722 40.7677 25.1002 41.528 30.7574C39.1963 22.8122 31.1788 26.1898 27.4615 28.8717Z" fill="url(#paint5_linear_1_1009)"/>
<path opacity="0.25" d="M38.4053 26.3615C35.3849 17.7425 26.1136 9.48461 21.8556 6.55762C27.4561 14.8404 27.8756 24.2649 27.519 28.728C32.0497 25.6765 35.4478 24.9914 38.4053 26.3615Z" fill="url(#paint6_linear_1_1009)"/>
<path d="M36.7987 26.6981C40.9443 32.2012 45.3833 45.5261 29.9744 54.8015C31.6539 46.1268 35.3701 28.3616 36.7987 26.6981Z" fill="url(#paint7_linear_1_1009)"/>
<path d="M28.6221 57.2977C25.5318 54.3369 29.1283 42.3353 31.2959 36.6562C23.8791 50.1839 22.2907 56.5597 22.5566 58.7201C26.2907 58.3372 26.1112 58.0634 28.6221 57.2977Z" fill="#27569F"/>
<path d="M16.5456 57.9244C15.8324 47.8841 20.6212 36.6707 23.1047 32.3191C6.29296 40.2908 1.62302 35.6406 1.38952 32.3191C-2.58418 49.2715 9.83787 56.4528 16.5456 57.9244Z" fill="url(#paint8_linear_1_1009)"/>
<path d="M16.5372 56.2069C16.3478 46.8023 20.684 36.3735 23.1047 32.3191C9.78034 38.2127 4.85475 37.1468 2.7077 34.827C0.889025 48.5704 11.2117 54.7858 16.5372 56.2069Z" fill="url(#paint9_linear_1_1009)"/>
<path d="M1.40277 32.4307C3.39063 25.3387 8.41125 17.9934 12.4252 15.144C17.8281 13.4216 18.7541 19.2599 18.7328 22.4259C17.9173 30.4298 14.1455 35.1113 12.3615 36.3566C5.16186 38.5729 1.59391 35.8501 1.40277 32.4307Z" fill="url(#paint10_linear_1_1009)"/>
<path d="M9.98975 17.3197L16.2641 8.74353C18.8723 12.7209 19.1138 19.343 18.731 22.2168C17.8416 12.9106 12.5938 14.7924 9.98975 17.3197Z" fill="#148CCC"/>
<defs>
<linearGradient id="paint0_linear_1_1009" x1="25.8371" y1="37.3149" x2="23.0404" y2="65.9614" gradientUnits="userSpaceOnUse">
<stop stop-color="#1EA99E"/>
<stop offset="0.359375" stop-color="#D0FEFA"/>
<stop offset="1" stop-color="#1EA99E"/>
</linearGradient>
<linearGradient id="paint1_linear_1_1009" x1="27.8771" y1="57.6167" x2="22.4127" y2="64.728" gradientUnits="userSpaceOnUse">
<stop stop-color="#188C83"/>
<stop offset="1" stop-color="white" stop-opacity="0"/>
</linearGradient>
<linearGradient id="paint2_linear_1_1009" x1="37.7441" y1="26.0107" x2="28.7334" y2="57.2715" gradientUnits="userSpaceOnUse">
<stop stop-color="#2D63C8"/>
<stop offset="1" stop-color="#08A7FA"/>
</linearGradient>
<radialGradient id="paint3_radial_1_1009" cx="0" cy="0" r="1" gradientUnits="userSpaceOnUse" gradientTransform="translate(14.2212 9.37259) rotate(-117.029) scale(10.5468 5.16135)">
<stop stop-color="#2AAFA4"/>
<stop offset="0.558139" stop-color="#D0FDF9"/>
<stop offset="1" stop-color="#2AAFA4"/>
</radialGradient>
<linearGradient id="paint4_linear_1_1009" x1="9.71771" y1="2.83486" x2="12.9602" y2="13.449" gradientUnits="userSpaceOnUse">
<stop stop-color="#ADFFF8"/>
<stop offset="1" stop-color="#1EA99E"/>
</linearGradient>
<linearGradient id="paint5_linear_1_1009" x1="29.6158" y1="-1.5513" x2="39.4231" y2="26.344" gradientUnits="userSpaceOnUse">
<stop stop-color="#00AFFF"/>
<stop offset="1" stop-color="#4268D5"/>
</linearGradient>
<linearGradient id="paint6_linear_1_1009" x1="32.4902" y1="16.7087" x2="27.5036" y2="21.3065" gradientUnits="userSpaceOnUse">
<stop stop-color="white" stop-opacity="0.73"/>
<stop offset="1" stop-color="white" stop-opacity="0"/>
</linearGradient>
<linearGradient id="paint7_linear_1_1009" x1="40.6892" y1="42.01" x2="35.3441" y2="40.2711" gradientUnits="userSpaceOnUse">
<stop stop-color="white" stop-opacity="0.18"/>
<stop offset="1" stop-color="white" stop-opacity="0"/>
</linearGradient>
<linearGradient id="paint8_linear_1_1009" x1="23.1047" y1="32.3822" x2="4.50973" y2="52.1129" gradientUnits="userSpaceOnUse">
<stop stop-color="#0D9FF4"/>
<stop offset="1" stop-color="#2B67CB"/>
</linearGradient>
<linearGradient id="paint9_linear_1_1009" x1="4.41271" y1="46.8023" x2="10.8756" y2="40.9881" gradientUnits="userSpaceOnUse">
<stop stop-color="white" stop-opacity="0.25"/>
<stop offset="1" stop-color="white" stop-opacity="0"/>
</linearGradient>
<linearGradient id="paint10_linear_1_1009" x1="15.4197" y1="15.5872" x2="5.51799" y2="37.0998" gradientUnits="userSpaceOnUse">
<stop stop-color="#06AAFC"/>
<stop offset="1" stop-color="#1B4CAA"/>
</linearGradient>
</defs>
</svg>
