<svg width="21" height="21" viewBox="0 0 21 21" fill="none" xmlns="http://www.w3.org/2000/svg">
<path d="M17.8003 14.6163C16.501 13.5313 15.1824 12.874 13.899 13.9574L13.1327 14.6122C12.572 15.0875 11.5296 17.3084 7.49903 12.7814C3.46933 8.26009 5.86734 7.55612 6.42886 7.0849L7.19938 6.42928C8.47603 5.34341 7.99425 3.97644 7.07348 2.56932L6.51783 1.71702C5.59288 0.313177 4.58566 -0.608786 3.30566 0.475443L2.61403 1.0655C2.04831 1.46788 0.466985 2.77584 0.0834037 5.26064C-0.378237 8.24206 1.07803 11.6562 4.41443 15.4022C7.74664 19.1499 11.0092 21.0324 14.0997 20.9996C16.6681 20.9725 18.2192 19.6269 18.7043 19.1376L19.3984 18.5467C20.6751 17.4633 19.8819 16.3603 18.5818 15.2727L17.8003 14.6163Z" fill="#2B2E34"/>
</svg>
