<svg width="25" height="25" viewBox="0 0 25 25" fill="none" xmlns="http://www.w3.org/2000/svg">
<path d="M22.4781 7.14061C22.6239 6.65623 22.4781 6.30103 21.7885 6.30103H19.5041C18.9229 6.30103 18.6573 6.60832 18.5114 6.94582C18.5114 6.94582 17.35 9.77811 15.7041 11.6146C15.1729 12.1489 14.9302 12.3177 14.6406 12.3177C14.4958 12.3177 14.2854 12.1489 14.2854 11.6646V7.14061C14.2854 6.55936 14.1177 6.30103 13.6333 6.30103H10.0437C9.68123 6.30103 9.46248 6.56978 9.46248 6.82603C9.46248 7.37603 10.2854 7.50311 10.3698 9.05311V12.4156C10.3698 13.1521 10.2375 13.2864 9.94581 13.2864C9.17186 13.2864 7.28852 10.4437 6.17081 7.18957C5.9531 6.55728 5.73331 6.30207 5.14998 6.30207H2.86665C2.21352 6.30207 2.08331 6.60936 2.08331 6.94686C2.08331 7.55311 2.85727 10.5531 5.68852 14.5208C7.57602 17.2302 10.2333 18.6989 12.6541 18.6989C14.1052 18.6989 14.2844 18.3729 14.2844 17.8104V15.7625C14.2844 15.1104 14.4229 14.9792 14.8823 14.9792C15.2198 14.9792 15.801 15.15 17.1562 16.4552C18.7041 18.0031 18.9604 18.6979 19.8302 18.6979H22.1135C22.7656 18.6979 23.0916 18.3719 22.9041 17.7281C22.6989 17.0875 21.9594 16.1552 20.9781 15.0521C20.4448 14.4229 19.6479 13.7458 19.4052 13.4073C19.0666 12.9708 19.1646 12.7781 19.4052 12.3906C19.4062 12.3917 22.1885 8.4729 22.4781 7.14061Z" fill="#7E838C"/>
</svg>
